# xmcd CD database file
#
# Track frame offsets:
#	150
#	24862
#	41069
#	62285
#	85158
#	105482
#	126737
#	152398
#	171218
#	188641
#	217062
#	240453
#	263855
#	281023
#
# Disc length: 4029 seconds
#
# Revision: 0
# Processed by: cddbd v1.5.1PL2 Copyright (c) Steve Scherf et al.
# Submitted via: CDex 1.40Release
#
DISCID=b90fbb0e
DTITLE=D.L - HIS MASTER WORKS
DYEAR=2005
DGENRE=Hip-Hop
TTITLE0=DEV LARGE feat. CQ,NIPPS a.k.a. ILLMATIC BUDDHA MC's - BEAT DOWN(LOST TAPE FROM '92 MIX)
TTITLE1=G.K.MARYAN - FREE GREEN 〜土地の中の土の記憶〜(波動MIX)
TTITLE2=FUSION CORE - リーサル・ウエポン feat. パピー飛葉
TTITLE3=m-flo - DISPATCH(SPACE BUDDHA PIMP +1 MORE REMIX)feat.DEV LARGE,NIPPS
TTITLE4=LUNCH TIME SPEAX - MAN TRACK
TTITLE5=DABO - Mr.Fudatkee(Let Me Diss'Em One More Time,Kaz! Mix)
TTITLE6=加藤ミリヤ - 夜空〜DO THE BOBO JAMES RMX〜feat.ILLMATIC BUDDHA MC's
TTITLE7=IQ - サクラサイズ feat. Mr.Pow
TTITLE8=YOU THE ROCK★ - プロフェッショナル・エンターテイナー(the living legend)
TTITLE9=KAMINARI KAZOKU feat. DEN,SICK KING - BROTHA SOUL
TTITLE10=bird feat.SUIKEN+DEV LARGE - REALIZER(D.L. remix)
TTITLE11=NIPPS feat.GORE-TEX,XBS,PUNCHLINE BB. - PARTNERS IN CRIME
TTITLE12=SUIKEN - ALKMAN
TTITLE13=MOOMIN - 夏の終わり
EXTD=YEAR: 2005 ID3G: 7
EXTT0=
EXTT1=
EXTT2=
EXTT3=
EXTT4=
EXTT5=
EXTT6=
EXTT7=
EXTT8=
EXTT9=
EXTT10=
EXTT11=
EXTT12=
EXTT13=
PLAYORDER=
